<svg xmlns="http://www.w3.org/2000/svg" xmlns:xlink="http://www.w3.org/1999/xlink" width="40" zoomAndPan="magnify" viewBox="0 0 30 30.000001" height="40" preserveAspectRatio="xMidYMid meet" version="1.0"><defs><clipPath id="2839feb15d"><path d="M 0.484375 0 L 29.515625 0 L 29.515625 29.03125 L 0.484375 29.03125 Z M 0.484375 0 " clip-rule="nonzero"/></clipPath></defs><g clip-path="url(#2839feb15d)"><path fill="#ffffff" d="M 0.484375 0 L 29.515625 0 L 29.515625 29.03125 L 0.484375 29.03125 Z M 0.484375 0 " fill-opacity="1" fill-rule="nonzero"/><path fill="#ffffff" d="M 0.484375 0 L 29.515625 0 L 29.515625 29.03125 L 0.484375 29.03125 Z M 0.484375 0 " fill-opacity="1" fill-rule="nonzero"/><path fill="#5a5007" d="M 14.675781 0.0117188 C 13.457031 0.0507812 11.660156 0.457031 10.257812 1.027344 C 7.960938 1.960938 5.746094 3.742188 4.277344 5.84375 C 3.625 6.773438 2.75 8.226562 2.425781 8.917969 C 1.59375 10.6875 0.949219 13.207031 0.703125 15.660156 C 0.484375 17.859375 1.082031 20.789062 2.179688 22.867188 C 3.503906 25.378906 4.648438 26.421875 7.179688 27.425781 C 8.867188 28.097656 11.878906 28.773438 13.90625 28.941406 C 14.933594 29.027344 15.183594 29.027344 16.300781 28.941406 C 17.5 28.851562 18.464844 28.667969 19.703125 28.292969 C 22.078125 27.574219 23.582031 26.730469 25.203125 25.207031 C 26.199219 24.265625 27.195312 22.882812 27.886719 21.46875 C 28.410156 20.40625 29.089844 18.40625 29.351562 17.164062 C 29.53125 16.316406 29.554688 16.046875 29.558594 14.621094 C 29.5625 13.222656 29.539062 12.917969 29.386719 12.1875 C 29.007812 10.417969 28.332031 8.710938 27.527344 7.515625 C 26.832031 6.476562 25.625 4.90625 25.082031 4.332031 C 23.792969 2.972656 21.53125 1.519531 19.855469 0.972656 C 18.941406 0.671875 15.972656 0.0703125 15.160156 0.015625 C 15.011719 0.0078125 14.851562 0.00390625 14.675781 0.0117188 Z M 14.675781 0.0117188 " fill-opacity="1" fill-rule="nonzero"/></g></svg>