<svg xmlns="http://www.w3.org/2000/svg" xmlns:xlink="http://www.w3.org/1999/xlink" width="40" zoomAndPan="magnify" viewBox="0 0 30 30.000001" height="40" preserveAspectRatio="xMidYMid meet" version="1.0"><defs><clipPath id="1d8ca4edc9"><path d="M 0.484375 0 L 29.515625 0 L 29.515625 28.816406 L 0.484375 28.816406 Z M 0.484375 0 " clip-rule="nonzero"/></clipPath></defs><g clip-path="url(#1d8ca4edc9)"><path fill="#bbb45b" d="M 29.726562 14.507812 C 29.726562 15.449219 29.632812 16.378906 29.449219 17.300781 C 29.261719 18.222656 28.988281 19.117188 28.625 19.984375 C 28.261719 20.851562 27.816406 21.675781 27.289062 22.457031 C 26.757812 23.238281 26.160156 23.960938 25.488281 24.625 C 24.816406 25.289062 24.085938 25.882812 23.292969 26.40625 C 22.503906 26.925781 21.671875 27.367188 20.792969 27.726562 C 19.914062 28.085938 19.011719 28.359375 18.078125 28.542969 C 17.144531 28.722656 16.203125 28.816406 15.253906 28.816406 C 14.304688 28.816406 13.363281 28.722656 12.429688 28.542969 C 11.5 28.359375 10.59375 28.085938 9.714844 27.726562 C 8.839844 27.367188 8.003906 26.925781 7.214844 26.40625 C 6.425781 25.882812 5.695312 25.289062 5.023438 24.625 C 4.351562 23.960938 3.75 23.238281 3.222656 22.457031 C 2.695312 21.675781 2.25 20.851562 1.882812 19.984375 C 1.519531 19.117188 1.246094 18.222656 1.0625 17.300781 C 0.875 16.378906 0.78125 15.449219 0.78125 14.507812 C 0.78125 13.570312 0.875 12.640625 1.0625 11.71875 C 1.246094 10.796875 1.519531 9.902344 1.882812 9.035156 C 2.25 8.167969 2.695312 7.34375 3.222656 6.5625 C 3.75 5.78125 4.351562 5.058594 5.023438 4.394531 C 5.695312 3.726562 6.425781 3.136719 7.214844 2.613281 C 8.003906 2.089844 8.839844 1.652344 9.714844 1.292969 C 10.59375 0.933594 11.5 0.660156 12.429688 0.476562 C 13.363281 0.292969 14.304688 0.203125 15.253906 0.203125 C 16.203125 0.203125 17.144531 0.292969 18.078125 0.476562 C 19.011719 0.660156 19.914062 0.933594 20.792969 1.292969 C 21.671875 1.652344 22.503906 2.089844 23.292969 2.613281 C 24.085938 3.136719 24.816406 3.726562 25.488281 4.394531 C 26.160156 5.058594 26.757812 5.78125 27.289062 6.5625 C 27.816406 7.34375 28.261719 8.167969 28.625 9.035156 C 28.988281 9.902344 29.261719 10.796875 29.449219 11.71875 C 29.632812 12.640625 29.726562 13.570312 29.726562 14.507812 Z M 29.726562 14.507812 " fill-opacity="1" fill-rule="nonzero"/></g><path fill="#310101" d="M 10.875 11.140625 L 10.875 2.59375 L 12.40625 2.59375 L 15.171875 9.0625 L 15.222656 9.0625 L 17.976562 2.59375 L 19.507812 2.59375 L 19.507812 11.140625 L 18.46875 11.140625 L 18.46875 4.144531 L 18.417969 4.144531 L 15.925781 9.917969 L 14.46875 9.917969 L 11.960938 4.144531 L 11.910156 4.144531 L 11.910156 11.140625 Z M 10.875 11.140625 " fill-opacity="1" fill-rule="nonzero"/><path fill="#310101" d="M 15.300781 26.671875 C 14.667969 26.671875 14.117188 26.558594 13.644531 26.332031 C 13.175781 26.105469 12.816406 25.785156 12.558594 25.378906 C 12.304688 24.972656 12.175781 24.5 12.175781 23.964844 L 13.261719 23.964844 C 13.261719 24.296875 13.335938 24.605469 13.484375 24.890625 C 13.632812 25.167969 13.859375 25.390625 14.164062 25.5625 C 14.46875 25.726562 14.851562 25.804688 15.3125 25.804688 C 15.683594 25.804688 16.007812 25.753906 16.289062 25.648438 C 16.570312 25.542969 16.785156 25.382812 16.941406 25.171875 C 17.109375 24.960938 17.191406 24.695312 17.191406 24.378906 C 17.191406 24.0625 17.117188 23.800781 16.96875 23.597656 C 16.828125 23.386719 16.632812 23.210938 16.386719 23.070312 C 16.140625 22.933594 15.863281 22.816406 15.558594 22.71875 C 15.265625 22.613281 14.960938 22.507812 14.644531 22.402344 C 13.898438 22.140625 13.34375 21.828125 12.992188 21.460938 C 12.644531 21.085938 12.472656 20.625 12.472656 20.082031 C 12.472656 19.648438 12.578125 19.265625 12.792969 18.933594 C 13.015625 18.589844 13.328125 18.324219 13.734375 18.128906 C 14.144531 17.933594 14.628906 17.835938 15.191406 17.835938 C 15.742188 17.835938 16.21875 17.9375 16.621094 18.140625 C 17.035156 18.34375 17.355469 18.625 17.585938 18.980469 C 17.816406 19.332031 17.929688 19.738281 17.929688 20.203125 L 16.84375 20.203125 C 16.84375 19.902344 16.777344 19.636719 16.648438 19.410156 C 16.515625 19.179688 16.320312 19.003906 16.066406 18.871094 C 15.8125 18.734375 15.492188 18.664062 15.101562 18.664062 C 14.796875 18.664062 14.523438 18.710938 14.277344 18.800781 C 14.039062 18.886719 13.847656 19.03125 13.707031 19.226562 C 13.574219 19.421875 13.511719 19.675781 13.511719 19.984375 C 13.511719 20.242188 13.5625 20.460938 13.671875 20.628906 C 13.777344 20.800781 13.933594 20.953125 14.140625 21.082031 C 14.355469 21.203125 14.613281 21.324219 14.917969 21.449219 C 15.230469 21.5625 15.589844 21.691406 15.992188 21.839844 C 16.414062 21.984375 16.785156 22.160156 17.117188 22.363281 C 17.453125 22.558594 17.71875 22.808594 17.90625 23.109375 C 18.105469 23.410156 18.203125 23.792969 18.203125 24.257812 C 18.203125 24.671875 18.097656 25.066406 17.882812 25.441406 C 17.667969 25.804688 17.347656 26.105469 16.917969 26.332031 C 16.492188 26.558594 15.953125 26.671875 15.300781 26.671875 Z M 15.300781 26.671875 " fill-opacity="1" fill-rule="nonzero"/><path stroke-linecap="butt" transform="matrix(0.128636, 0, 0, 0.127171, -13.109701, -0.942127)" fill="none" stroke-linejoin="miter" d="M 141.996886 122.994401 L 299.994451 122.994401 " stroke="#310101" stroke-width="6" stroke-opacity="1" stroke-miterlimit="4"/></svg>