<svg xmlns="http://www.w3.org/2000/svg" xmlns:xlink="http://www.w3.org/1999/xlink" width="40" zoomAndPan="magnify" viewBox="0 0 30 30.000001" height="40" preserveAspectRatio="xMidYMid meet" version="1.0"><defs><g/><clipPath id="22b74692a4"><path d="M 4.464844 0 L 25.535156 0 L 25.535156 29.03125 L 4.464844 29.03125 Z M 4.464844 0 " clip-rule="nonzero"/></clipPath><clipPath id="9710cfefec"><path d="M 15 0 C 9.183594 0 4.464844 6.5 4.464844 14.515625 C 4.464844 22.53125 9.183594 29.03125 15 29.03125 C 20.816406 29.03125 25.535156 22.53125 25.535156 14.515625 C 25.535156 6.5 20.816406 0 15 0 Z M 15 0 " clip-rule="nonzero"/></clipPath><clipPath id="aa40e60a40"><path d="M 4.464844 0.00390625 L 25.515625 0.00390625 L 25.515625 29.03125 L 4.464844 29.03125 Z M 4.464844 0.00390625 " clip-rule="nonzero"/></clipPath><clipPath id="de7824fdeb"><path d="M 14.996094 0.00390625 C 9.179688 0.00390625 4.464844 6.503906 4.464844 14.515625 C 4.464844 22.53125 9.179688 29.027344 14.996094 29.027344 C 20.8125 29.027344 25.527344 22.53125 25.527344 14.515625 C 25.527344 6.503906 20.8125 0.00390625 14.996094 0.00390625 Z M 14.996094 0.00390625 " clip-rule="nonzero"/></clipPath></defs><g clip-path="url(#22b74692a4)"><g clip-path="url(#9710cfefec)"><path fill="#f7f6ef" d="M 4.464844 0 L 25.535156 0 L 25.535156 29.050781 L 4.464844 29.050781 Z M 4.464844 0 " fill-opacity="1" fill-rule="nonzero"/></g></g><g clip-path="url(#aa40e60a40)"><g clip-path="url(#de7824fdeb)"><path stroke-linecap="butt" transform="matrix(0.725806, 0, 0, 0.725806, 4.466249, 0.00535813)" fill="none" stroke-linejoin="miter" d="M 14.507787 -0.00200037 C 6.494072 -0.00200037 -0.00193577 8.953556 -0.00193577 19.991925 C -0.00193577 31.035675 6.494072 39.98585 14.507787 39.98585 C 22.521503 39.98585 29.017511 31.035675 29.017511 19.991925 C 29.017511 8.953556 22.521503 -0.00200037 14.507787 -0.00200037 Z M 14.507787 -0.00200037 " stroke="#000000" stroke-width="2" stroke-opacity="1" stroke-miterlimit="4"/></g></g><g fill="#000000" fill-opacity="1"><g transform="translate(9.098962, 13.121632)"><g><path d="M 10.75 0 L 9.65625 0 L 9.0625 -7.3125 L 6.234375 0 L 5.5625 0 L 2.75 -7.28125 L 2.15625 0 L 1.0625 0 L 1.734375 -8.859375 L 3.21875 -8.859375 L 5.890625 -1.953125 L 8.59375 -8.859375 L 10.078125 -8.859375 Z M 10.75 0 "/></g></g></g><g fill="#000000" fill-opacity="1"><g transform="translate(11.011881, 24.803601)"><g><path d="M 4.125 0.125 C 3.507812 0.125 2.957031 0.03125 2.46875 -0.15625 C 1.988281 -0.34375 1.59375 -0.609375 1.28125 -0.953125 C 0.96875 -1.304688 0.757812 -1.726562 0.65625 -2.21875 L 1.765625 -2.484375 C 1.859375 -2.140625 2.015625 -1.84375 2.234375 -1.59375 C 2.453125 -1.351562 2.722656 -1.164062 3.046875 -1.03125 C 3.378906 -0.90625 3.742188 -0.84375 4.140625 -0.84375 C 4.390625 -0.84375 4.628906 -0.867188 4.859375 -0.921875 C 5.097656 -0.984375 5.3125 -1.070312 5.5 -1.1875 C 5.6875 -1.300781 5.832031 -1.453125 5.9375 -1.640625 C 6.039062 -1.835938 6.09375 -2.078125 6.09375 -2.359375 C 6.082031 -2.628906 6.007812 -2.859375 5.875 -3.046875 C 5.738281 -3.234375 5.554688 -3.390625 5.328125 -3.515625 C 5.097656 -3.640625 4.84375 -3.742188 4.5625 -3.828125 C 4.28125 -3.921875 3.984375 -4.007812 3.671875 -4.09375 C 3.390625 -4.164062 3.113281 -4.242188 2.84375 -4.328125 C 2.582031 -4.410156 2.332031 -4.507812 2.09375 -4.625 C 1.863281 -4.75 1.660156 -4.894531 1.484375 -5.0625 C 1.304688 -5.226562 1.164062 -5.425781 1.0625 -5.65625 C 0.96875 -5.894531 0.921875 -6.179688 0.921875 -6.515625 C 0.921875 -6.921875 1 -7.273438 1.15625 -7.578125 C 1.3125 -7.878906 1.523438 -8.128906 1.796875 -8.328125 C 2.066406 -8.535156 2.378906 -8.691406 2.734375 -8.796875 C 3.085938 -8.898438 3.457031 -8.953125 3.84375 -8.953125 C 4.238281 -8.953125 4.613281 -8.90625 4.96875 -8.8125 C 5.320312 -8.726562 5.644531 -8.597656 5.9375 -8.421875 C 6.226562 -8.253906 6.472656 -8.035156 6.671875 -7.765625 C 6.867188 -7.492188 7.007812 -7.171875 7.09375 -6.796875 L 6.046875 -6.53125 C 5.960938 -6.863281 5.8125 -7.132812 5.59375 -7.34375 C 5.382812 -7.5625 5.132812 -7.722656 4.84375 -7.828125 C 4.550781 -7.929688 4.234375 -7.984375 3.890625 -7.984375 C 3.660156 -7.984375 3.4375 -7.953125 3.21875 -7.890625 C 3 -7.835938 2.800781 -7.753906 2.625 -7.640625 C 2.445312 -7.523438 2.304688 -7.375 2.203125 -7.1875 C 2.097656 -7.007812 2.046875 -6.789062 2.046875 -6.53125 C 2.046875 -6.28125 2.101562 -6.070312 2.21875 -5.90625 C 2.332031 -5.738281 2.488281 -5.597656 2.6875 -5.484375 C 2.894531 -5.378906 3.125 -5.285156 3.375 -5.203125 C 3.632812 -5.128906 3.910156 -5.050781 4.203125 -4.96875 C 4.484375 -4.894531 4.769531 -4.8125 5.0625 -4.71875 C 5.351562 -4.632812 5.628906 -4.53125 5.890625 -4.40625 C 6.148438 -4.289062 6.378906 -4.144531 6.578125 -3.96875 C 6.785156 -3.789062 6.945312 -3.570312 7.0625 -3.3125 C 7.175781 -3.050781 7.234375 -2.742188 7.234375 -2.390625 C 7.234375 -1.960938 7.148438 -1.59375 6.984375 -1.28125 C 6.828125 -0.96875 6.601562 -0.707031 6.3125 -0.5 C 6.03125 -0.289062 5.703125 -0.132812 5.328125 -0.03125 C 4.953125 0.0703125 4.550781 0.125 4.125 0.125 Z M 4.125 0.125 "/></g></g></g></svg>