<svg width="440" height="234" viewBox="0 0 440 234" fill="none" xmlns="http://www.w3.org/2000/svg">
<circle cx="220.5" cy="121.5" r="112.5" fill="#BBB45B"/>
<path d="M186.445 95V27.8L198.349 27.8L219.853 78.68H220.237L241.645 27.8H253.549V95H245.485V39.992H245.101L225.709 85.4H214.381L194.893 39.992H194.509V95H186.445Z" fill="#310101"/>
<path d="M220.86 217.152C215.932 217.152 211.644 216.256 207.996 214.464C204.348 212.672 201.532 210.176 199.548 206.976C197.564 203.776 196.572 200.064 196.572 195.84H205.02C205.02 198.464 205.596 200.896 206.748 203.136C207.9 205.312 209.66 207.072 212.028 208.416C214.396 209.696 217.372 210.336 220.956 210.336C223.836 210.336 226.364 209.92 228.54 209.088C230.716 208.256 232.412 207.008 233.628 205.344C234.908 203.68 235.548 201.6 235.548 199.104C235.548 196.608 234.972 194.56 233.82 192.96C232.732 191.296 231.228 189.92 229.308 188.832C227.388 187.744 225.244 186.816 222.876 186.048C220.572 185.216 218.204 184.384 215.772 183.552C209.948 181.504 205.66 179.04 202.908 176.16C200.22 173.216 198.876 169.6 198.876 165.312C198.876 161.92 199.708 158.912 201.372 156.288C203.1 153.6 205.532 151.488 208.668 149.952C211.868 148.416 215.644 147.648 219.996 147.648C224.284 147.648 227.996 148.448 231.132 150.048C234.332 151.648 236.828 153.856 238.62 156.672C240.412 159.424 241.308 162.624 241.308 166.272H232.86C232.86 163.904 232.348 161.824 231.324 160.032C230.3 158.24 228.796 156.832 226.812 155.808C224.828 154.72 222.332 154.176 219.324 154.176C216.956 154.176 214.812 154.528 212.892 155.232C211.036 155.936 209.564 157.056 208.476 158.592C207.452 160.128 206.94 162.112 206.94 164.544C206.94 166.592 207.356 168.288 208.188 169.632C209.02 170.976 210.236 172.16 211.836 173.184C213.5 174.144 215.516 175.104 217.884 176.064C220.316 176.96 223.1 177.984 226.236 179.136C229.5 180.288 232.412 181.664 234.972 183.264C237.596 184.8 239.644 186.752 241.116 189.12C242.652 191.488 243.42 194.496 243.42 198.144C243.42 201.408 242.588 204.512 240.924 207.456C239.26 210.336 236.764 212.672 233.436 214.464C230.108 216.256 225.916 217.152 220.86 217.152Z" fill="#310101"/>
<line x1="142" y1="123" x2="300" y2="123" stroke="#310101" stroke-width="6"/>
</svg>
