<svg width="306" height="52" viewBox="0 0 306 52" fill="none" xmlns="http://www.w3.org/2000/svg">
<path d="M71.9067 49.6906C72.3648 49.544 72.9329 49.3332 73.611 49.0583C74.289 48.765 74.9304 48.4626 75.5351 48.151C74.9304 46.978 74.628 45.6217 74.628 44.0821C74.628 42.9457 74.8388 41.9468 75.2603 41.0853C75.6817 40.2056 76.2682 39.5182 77.0195 39.0234C77.7709 38.5102 78.623 38.2536 79.5759 38.2536C80.3822 38.2536 81.0969 38.446 81.72 38.8309C82.3431 39.1975 82.8287 39.7107 83.1769 40.3705C83.525 41.0303 83.6991 41.791 83.6991 42.6524C83.6258 44.8519 82.0682 46.9322 79.0261 48.8933C79.6309 49.4065 80.4739 49.6631 81.5551 49.6631C82.0865 49.6631 82.6179 49.5898 83.1494 49.4432C83.6808 49.2965 84.1939 49.0949 84.6887 48.8383C84.9636 49.0399 85.1652 49.3424 85.2935 49.7456C85.4401 50.1305 85.5134 50.5062 85.5134 50.8728C84.9086 51.221 84.2672 51.496 83.5892 51.6976C82.9111 51.8992 82.1964 52 81.4451 52H81.4176C80.4647 52 79.5759 51.835 78.7513 51.5051C77.9449 51.1569 77.2944 50.6803 76.7996 50.0755C76.1216 50.4237 75.3977 50.7628 74.628 51.0927C73.8767 51.4043 73.2353 51.6426 72.7039 51.8076C72.4107 51.551 72.1999 51.2485 72.0716 50.9003C71.925 50.552 71.8701 50.1488 71.9067 49.6906ZM77.0195 43.8621C77.0195 45.1634 77.2303 46.2448 77.6517 47.1063C78.9162 46.2632 79.8325 45.5117 80.4006 44.8519C80.9686 44.1737 81.271 43.4406 81.3077 42.6524C81.3077 41.9926 81.1427 41.4794 80.8129 41.1128C80.5014 40.7279 80.0615 40.5355 79.4934 40.5355C78.7788 40.5355 78.1832 40.8562 77.7067 41.4977C77.2486 42.1392 77.0195 42.9274 77.0195 43.8621Z" fill="#310101"/>
<path d="M88.3754 45.0168C88.2288 44.6502 88.1554 44.2195 88.1554 43.7247C88.1554 43.2115 88.2288 42.7899 88.3754 42.46H96.182C96.3286 42.7899 96.4019 43.2115 96.4019 43.7247C96.4019 44.2195 96.3286 44.6502 96.182 45.0168H88.3754Z" fill="#310101"/>
<path d="M106.865 52C105.435 52 104.189 51.7159 103.126 51.1477C102.064 50.5795 101.239 49.7914 100.652 48.7833C100.066 47.7569 99.7729 46.5564 99.7729 45.1818C99.7729 43.8255 100.029 42.6341 100.543 41.6077C101.056 40.563 101.761 39.7474 102.659 39.1608C103.575 38.556 104.62 38.2536 105.793 38.2536C106.672 38.2536 107.47 38.4277 108.184 38.7759C108.917 39.1059 109.513 39.5916 109.971 40.2331C109.751 40.9845 109.22 41.5252 108.377 41.8551C107.772 41.0303 106.938 40.618 105.875 40.618C104.812 40.618 103.951 41.0212 103.291 41.8276C102.65 42.6158 102.329 43.688 102.329 45.0443C102.329 46.4373 102.732 47.5553 103.539 48.3984C104.363 49.2416 105.527 49.6631 107.03 49.6631C107.268 49.6631 107.46 49.7822 107.607 50.0205C107.772 50.2405 107.854 50.5246 107.854 50.8728C107.854 51.221 107.763 51.496 107.58 51.6976C107.415 51.8992 107.176 52 106.865 52Z" fill="#310101"/>
<path d="M106.903 52C106.646 52 106.445 51.89 106.298 51.6701C106.133 51.4501 106.051 51.166 106.051 50.8178C106.051 50.4512 106.143 50.1671 106.326 49.9655C106.509 49.7639 106.747 49.6631 107.04 49.6631C108.158 49.6631 109.175 49.3699 110.092 48.7833C111.026 48.1785 111.787 47.3537 112.373 46.309C112.318 45.9241 112.291 45.5209 112.291 45.0993C112.291 43.7796 112.575 42.6066 113.143 41.5802C113.711 40.5538 114.481 39.7474 115.452 39.1608C116.441 38.556 117.55 38.2536 118.778 38.2536C120.006 38.2536 121.105 38.556 122.077 39.1608C123.048 39.7474 123.808 40.5538 124.358 41.5802C124.926 42.6066 125.21 43.7796 125.21 45.0993C125.21 46.4189 124.926 47.6011 124.358 48.6459C123.808 49.6906 123.048 50.5154 122.077 51.1202C121.124 51.7067 120.024 52 118.778 52C117.605 52 116.551 51.7342 115.617 51.2027C114.682 50.6712 113.931 49.9472 113.363 49.0308C112.593 49.9839 111.649 50.717 110.531 51.2302C109.432 51.7434 108.222 52 106.903 52ZM118.75 49.6356C119.923 49.6356 120.858 49.2232 121.554 48.3984C122.269 47.5737 122.626 46.4739 122.626 45.0993C122.626 44.4211 122.526 43.798 122.324 43.2298C121.224 43.1931 120.226 42.9732 119.328 42.57C118.448 42.1667 117.752 41.6169 117.239 40.9204C116.506 41.232 115.928 41.7635 115.507 42.515C115.085 43.2481 114.875 44.1279 114.875 45.1543C114.875 46.4923 115.223 47.5737 115.919 48.3984C116.634 49.2232 117.578 49.6356 118.75 49.6356Z" fill="#310101"/>
<path d="M131.543 51.8076C131.085 51.8076 130.673 51.7434 130.306 51.6151V42.8449C130.306 41.3603 129.885 40.618 129.042 40.618C128.639 40.618 128.08 40.7921 127.365 41.1403C126.651 41.4886 125.835 41.9834 124.919 42.6249C124.754 42.7349 124.58 42.7899 124.396 42.7899C124.14 42.7899 123.883 42.6433 123.627 42.35C123.37 42.0568 123.242 41.7452 123.242 41.4153C123.242 41.1037 123.398 40.8471 123.709 40.6455C125.01 39.784 126.064 39.17 126.87 38.8034C127.677 38.4369 128.474 38.2536 129.262 38.2536C130.05 38.2536 130.719 38.4827 131.269 38.9409C131.837 39.3808 132.24 39.9948 132.478 40.7829C132.9 39.9765 133.449 39.3533 134.127 38.9134C134.824 38.4735 135.603 38.2536 136.464 38.2536C138.26 38.2536 139.478 39.1792 140.12 41.0303C140.56 40.1506 141.155 39.4724 141.906 38.9959C142.658 38.501 143.51 38.2536 144.463 38.2536C145.764 38.2536 146.763 38.666 147.459 39.4907C148.155 40.3155 148.504 41.4794 148.504 42.9823V46.8039C148.504 47.8119 148.632 48.5359 148.888 48.9758C149.163 49.4157 149.594 49.6356 150.18 49.6356C150.437 49.6356 150.629 49.7456 150.758 49.9655C150.904 50.1855 150.978 50.4787 150.978 50.8453C150.978 51.1386 150.895 51.4043 150.73 51.6426C150.584 51.8809 150.336 52 149.988 52C147.331 52 146.002 50.3688 146.002 47.1063V43.5872C146.002 42.6341 145.828 41.901 145.48 41.3878C145.132 40.8746 144.637 40.618 143.996 40.618C143.024 40.618 142.255 41.177 141.687 42.295C141.137 43.3947 140.862 44.9252 140.862 46.8863V51.6151C140.679 51.6701 140.477 51.7159 140.257 51.7526C140.037 51.7892 139.827 51.8076 139.625 51.8076C139.185 51.8076 138.764 51.7434 138.361 51.6151V43.9721C138.361 42.8907 138.168 42.0659 137.783 41.4977C137.417 40.9112 136.867 40.618 136.134 40.618C135.474 40.618 134.888 40.8837 134.375 41.4153C133.88 41.9285 133.486 42.6616 133.193 43.6147C132.918 44.5494 132.78 45.64 132.78 46.8863V51.6151C132.597 51.6701 132.396 51.7159 132.176 51.7526C131.956 51.7892 131.745 51.8076 131.543 51.8076Z" fill="#310101"/>
<path d="M149.997 52C149.759 52 149.566 51.89 149.42 51.6701C149.273 51.4501 149.2 51.166 149.2 50.8178C149.2 50.0297 149.53 49.6356 150.189 49.6356C150.776 49.6356 151.298 49.3424 151.756 48.7558C152.233 48.151 152.645 47.1521 152.993 45.7591L153.818 42.5425C154.588 39.6832 156.054 38.2536 158.216 38.2536C159.004 38.2536 159.673 38.4827 160.223 38.9409C160.791 39.3808 161.194 39.9948 161.432 40.7829C161.854 39.9765 162.403 39.3533 163.081 38.9134C163.778 38.4735 164.557 38.2536 165.418 38.2536C167.214 38.2536 168.432 39.1792 169.074 41.0303C169.514 40.1506 170.109 39.4724 170.861 38.9959C171.612 38.501 172.464 38.2536 173.417 38.2536C174.718 38.2536 175.717 38.666 176.413 39.4907C177.11 40.3155 177.458 41.4794 177.458 42.9823V46.8039C177.458 47.8119 177.586 48.5359 177.843 48.9758C178.117 49.4157 178.548 49.6356 179.135 49.6356C179.391 49.6356 179.583 49.7456 179.712 49.9655C179.858 50.1855 179.932 50.4787 179.932 50.8453C179.932 51.1386 179.849 51.4043 179.684 51.6426C179.538 51.8809 179.29 52 178.942 52C176.285 52 174.956 50.3688 174.956 47.1063V43.5872C174.956 42.6341 174.782 41.901 174.434 41.3878C174.086 40.8746 173.591 40.618 172.95 40.618C171.978 40.618 171.209 41.177 170.641 42.295C170.091 43.3947 169.816 44.9252 169.816 46.8863V51.6151C169.633 51.6701 169.431 51.7159 169.211 51.7526C168.991 51.7892 168.781 51.8076 168.579 51.8076C168.139 51.8076 167.718 51.7434 167.315 51.6151V43.9721C167.315 42.8907 167.122 42.0659 166.737 41.4977C166.371 40.9112 165.821 40.618 165.088 40.618C164.41 40.618 163.824 40.8837 163.329 41.4153C162.834 41.9285 162.44 42.6616 162.147 43.6147C161.872 44.5494 161.734 45.64 161.734 46.8863V51.6151C161.551 51.6701 161.35 51.7159 161.13 51.7526C160.91 51.7892 160.699 51.8076 160.498 51.8076C160.039 51.8076 159.627 51.7434 159.261 51.6151V42.8449C159.261 41.3603 158.839 40.618 157.996 40.618C157.611 40.618 157.281 40.7921 157.007 41.1403C156.732 41.4886 156.493 42.0476 156.292 42.8174L155.275 46.7764C154.798 48.5909 154.139 49.9197 153.296 50.7628C152.453 51.5876 151.353 52 149.997 52Z" fill="#310101"/>
<path d="M178.935 52C178.697 52 178.504 51.89 178.358 51.6701C178.211 51.4501 178.138 51.166 178.138 50.8178C178.138 50.0297 178.467 49.6356 179.127 49.6356C179.659 49.6356 180.199 49.5531 180.749 49.3882C181.299 49.2049 181.94 48.9025 182.673 48.4809C181.958 47.2346 181.601 45.7683 181.601 44.0821C181.601 42.9457 181.812 41.9468 182.233 41.0853C182.655 40.2056 183.241 39.5182 183.993 39.0234C184.744 38.5102 185.596 38.2536 186.549 38.2536C187.355 38.2536 188.07 38.446 188.693 38.8309C189.316 39.1975 189.802 39.7107 190.15 40.3705C190.498 41.0303 190.672 41.791 190.672 42.6524C190.672 43.8255 190.324 44.8977 189.628 45.8691C188.95 46.8405 187.795 47.8944 186.164 49.0308C186.751 49.4523 187.539 49.6631 188.528 49.6631C188.785 49.6631 188.986 49.7731 189.133 49.993C189.28 50.213 189.353 50.5062 189.353 50.8728C189.353 51.221 189.27 51.496 189.105 51.6976C188.941 51.8992 188.702 52 188.391 52C187.511 52 186.686 51.8534 185.917 51.5601C185.147 51.2669 184.506 50.8636 183.993 50.3504C182.233 51.4501 180.547 52 178.935 52ZM183.993 43.8621C183.993 45.3101 184.249 46.4648 184.762 47.3262C185.953 46.5014 186.833 45.695 187.401 44.9068C187.988 44.1187 188.281 43.3672 188.281 42.6524C188.281 41.9926 188.116 41.4794 187.786 41.1128C187.474 40.7279 187.035 40.5355 186.467 40.5355C185.752 40.5355 185.156 40.8562 184.68 41.4977C184.222 42.1392 183.993 42.9274 183.993 43.8621Z" fill="#310101"/>
<path d="M188.456 52C188.2 52 187.989 51.89 187.824 51.6701C187.659 51.4501 187.577 51.1752 187.577 50.8453C187.577 50.0572 187.906 49.6631 188.566 49.6631C190.784 49.6631 192.515 48.8475 193.761 47.2162C194.275 46.5381 194.669 45.7591 194.943 44.8793C195.218 43.9996 195.356 43.0923 195.356 42.1576C195.356 41.846 195.337 41.5344 195.301 41.2228C195.282 40.9112 195.246 40.6638 195.191 40.4805C194.989 40.2606 194.788 39.9673 194.586 39.6007C194.385 39.2341 194.22 38.8676 194.091 38.501C193.981 38.1161 193.926 37.7862 193.926 37.5113C194.165 37.163 194.549 36.8881 195.081 36.6865C195.612 36.4849 196.116 36.4299 196.593 36.5215C196.941 37.163 197.225 37.9511 197.445 38.8859C197.903 38.8493 198.462 38.7484 199.122 38.5835C199.708 38.4552 200.175 38.3727 200.524 38.3361C200.89 38.2811 201.202 38.2536 201.458 38.2536C202.448 38.2536 203.227 38.6293 203.795 39.3808C204.363 40.1139 204.647 41.1128 204.647 42.3775V46.8039C204.647 47.8119 204.775 48.5359 205.032 48.9758C205.306 49.4157 205.737 49.6356 206.324 49.6356C206.58 49.6356 206.773 49.7456 206.901 49.9655C207.047 50.1855 207.121 50.4787 207.121 50.8453C207.121 51.1386 207.038 51.4043 206.873 51.6426C206.727 51.8809 206.479 52 206.131 52C203.474 52 202.145 50.3688 202.145 47.1063V42.8449C202.145 42.0201 202.054 41.4427 201.87 41.1128C201.687 40.7829 201.357 40.618 200.881 40.618C200.716 40.618 200.533 40.6363 200.331 40.6729C200.13 40.7096 199.772 40.7829 199.259 40.8929C198.654 41.0212 198.16 41.1128 197.775 41.1678C197.793 41.4427 197.802 41.7177 197.802 41.9926C197.802 43.3123 197.601 44.5861 197.197 45.8141C196.813 47.0238 196.254 48.0685 195.521 48.9483C193.853 50.9828 191.498 52 188.456 52Z" fill="#310101"/>
<path d="M206.32 49.6356C206.907 49.6356 207.484 49.3515 208.052 48.7833C208.638 48.2152 209.142 47.4454 209.564 46.4739C209.49 46.0524 209.454 45.6217 209.454 45.1818C209.454 43.8255 209.71 42.6341 210.223 41.6077C210.737 40.563 211.442 39.7474 212.34 39.1608C213.256 38.556 214.301 38.2536 215.474 38.2536C216.353 38.2536 217.15 38.4277 217.865 38.7759C218.598 39.1059 219.194 39.5916 219.652 40.2331C219.432 40.9845 218.901 41.5252 218.058 41.8551C217.453 41.0303 216.619 40.618 215.556 40.618C214.493 40.618 213.632 41.0212 212.972 41.8276C212.331 42.6158 212.01 43.688 212.01 45.0443C212.01 46.4373 212.413 47.5553 213.22 48.3984C214.044 49.2416 215.208 49.6631 216.711 49.6631C216.949 49.6631 217.141 49.7822 217.288 50.0205C217.453 50.2405 217.535 50.5246 217.535 50.8728C217.535 51.221 217.444 51.496 217.26 51.6976C217.096 51.8992 216.857 52 216.546 52C215.245 52 214.09 51.7617 213.082 51.2852C212.074 50.8086 211.268 50.1397 210.663 49.2782C209.527 51.0927 208.015 52 206.128 52C205.889 52 205.697 51.89 205.55 51.6701C205.404 51.4501 205.331 51.166 205.331 50.8178C205.331 50.0297 205.66 49.6356 206.32 49.6356Z" fill="#310101"/>
<path d="M216.533 52C216.295 52 216.093 51.89 215.928 51.6701C215.763 51.4501 215.681 51.1844 215.681 50.8728C215.681 50.4879 215.773 50.1946 215.956 49.993C216.121 49.7731 216.35 49.6631 216.643 49.6631C217.504 49.6631 218.375 49.5531 219.254 49.3332C220.116 49.1133 221.041 48.7192 222.031 48.151C221.481 46.9413 221.206 45.585 221.206 44.0821C221.206 42.964 221.417 41.9743 221.838 41.1128C222.278 40.2331 222.865 39.5366 223.598 39.0234C224.349 38.5102 225.192 38.2536 226.126 38.2536C226.914 38.2536 227.62 38.4369 228.243 38.8034C228.866 39.17 229.361 39.6649 229.727 40.288C230.094 40.9112 230.277 41.6169 230.277 42.405C230.277 43.578 229.865 44.6961 229.04 45.7591C228.216 46.8222 227.015 47.8211 225.439 48.7558C226.154 49.3607 227.144 49.6631 228.408 49.6631C228.939 49.6631 229.471 49.5898 230.002 49.4432C230.534 49.2965 231.047 49.0949 231.542 48.8383C231.816 49.0399 232.018 49.3424 232.146 49.7456C232.293 50.1305 232.366 50.5062 232.366 50.8728C231.762 51.221 231.12 51.496 230.442 51.6976C229.764 51.8992 229.049 52 228.298 52H228.271C227.244 52 226.301 51.835 225.439 51.5051C224.578 51.1569 223.872 50.6803 223.323 50.0755C220.977 51.3585 218.714 52 216.533 52ZM223.57 43.9996C223.57 45.2093 223.79 46.1807 224.23 46.9138C226.667 45.5025 227.886 43.9996 227.886 42.405C227.886 41.8185 227.73 41.3603 227.418 41.0303C227.107 40.7004 226.676 40.5355 226.126 40.5355C225.393 40.5355 224.78 40.8654 224.285 41.5252C223.808 42.1667 223.57 42.9915 223.57 43.9996Z" fill="#310101"/>
<path d="M0 2.6833H4.92589L14.4258 21.7743H14.074L23.5739 2.6833H28.3678V30.3081H24.8933V6.24638H25.5091L15.3934 26.833H13.1064L3.0347 6.37834H3.43053V30.3081H0V2.6833Z" fill="#310101"/>
<path d="M43.3073 30.836C41.6214 30.836 40.0454 30.3814 38.5793 29.4724C37.128 28.5633 35.9551 27.2803 35.0609 25.6233C34.1666 23.9664 33.7194 22.009 33.7194 19.7509C33.7194 17.4341 34.1666 15.4547 35.0609 13.8124C35.9551 12.1702 37.128 10.9165 38.5793 10.0514C40.0454 9.18628 41.6214 8.75373 43.3073 8.75373C44.4948 8.75373 45.5577 8.93701 46.4959 9.30359C47.4489 9.65549 48.2772 10.1467 48.9809 10.7772C49.6846 11.4077 50.2637 12.1262 50.7181 12.9326C51.1873 13.7244 51.5318 14.5602 51.7517 15.44L48.2332 15.7479C47.8667 14.5309 47.251 13.5705 46.386 12.8667C45.5357 12.1482 44.4948 11.7889 43.2633 11.7889C42.2224 11.7889 41.2402 12.0895 40.3166 12.6907C39.4077 13.2772 38.6673 14.1643 38.0956 15.352C37.5238 16.525 37.2379 17.9913 37.2379 19.7509C37.2379 21.3785 37.4945 22.7934 38.0076 23.9958C38.5354 25.1835 39.2537 26.1072 40.1627 26.7671C41.0716 27.4269 42.1052 27.7568 43.2633 27.7568C44.8906 27.7568 46.1221 27.3609 46.9577 26.5691C47.808 25.7626 48.2332 24.6483 48.2332 23.226H51.7517C51.7517 24.6923 51.4072 25.9973 50.7181 27.141C50.0291 28.2847 49.0469 29.1864 47.7714 29.8463C46.5106 30.5061 45.0226 30.836 43.3073 30.836Z" fill="#310101"/>
<path d="M57.2328 2.6833H61.3231L75.3531 25.4254H75.0452V2.6833H78.4757V30.3081H74.6494L60.1356 6.81823H60.6634V30.3081H57.2328V2.6833Z" fill="#310101"/>
<path d="M85.9786 30.3081V2.6833H102.999V5.63054H89.4091V14.9121H102.208V17.8594H89.4091V27.3169H102.999V30.3081H85.9786Z" fill="#310101"/>
<path d="M111.335 4.31088C110.631 4.31088 110.074 4.11293 109.663 3.71703C109.253 3.30647 109.048 2.77128 109.048 2.11145C109.048 1.46628 109.253 0.953084 109.663 0.571849C110.074 0.190616 110.631 0 111.335 0C112.038 0 112.596 0.190616 113.006 0.571849C113.417 0.953084 113.622 1.46628 113.622 2.11145C113.622 2.77128 113.417 3.30647 113.006 3.71703C112.596 4.11293 112.038 4.31088 111.335 4.31088ZM109.619 30.3081V9.2376H113.05V30.3081H109.619Z" fill="#310101"/>
<path d="M124.611 2.6833V27.3169H136.925V30.3081H121.18V2.6833H124.611Z" fill="#310101"/>
<path d="M143.864 2.6833V27.3169H156.179V30.3081H140.434V2.6833H143.864Z" fill="#310101"/>
<path d="M177.645 30.836C175.798 30.836 174.105 30.5061 172.565 29.8463C171.026 29.1718 169.787 28.182 168.849 26.877C167.911 25.572 167.427 23.9591 167.398 22.0383H170.74C170.74 23.3286 171.055 24.3917 171.686 25.2275C172.316 26.0486 173.152 26.6644 174.193 27.075C175.234 27.4709 176.37 27.6688 177.601 27.6688C178.935 27.6688 180.094 27.4562 181.076 27.031C182.058 26.6058 182.813 26.0486 183.341 25.3594C183.883 24.6556 184.154 23.8858 184.154 23.05C184.154 21.877 183.795 20.9312 183.077 20.2128C182.359 19.4796 181.296 18.8858 179.888 18.4312L175.006 16.7157C172.719 15.8945 170.989 14.9561 169.817 13.9004C168.644 12.8447 168.057 11.3637 168.057 9.45754C168.057 7.31677 168.878 5.57189 170.52 4.2229C172.177 2.87392 174.523 2.19943 177.557 2.19943C180.372 2.19943 182.571 2.85193 184.154 4.15692C185.738 5.44725 186.647 7.1848 186.881 9.36957H183.495C183.275 8.0939 182.674 7.10416 181.691 6.40034C180.724 5.68186 179.346 5.32262 177.557 5.32262C175.739 5.32262 174.325 5.72585 173.313 6.5323C172.302 7.33876 171.796 8.35783 171.796 9.58951C171.796 10.6012 172.111 11.4077 172.741 12.0089C173.386 12.5954 174.391 13.1233 175.754 13.5925L181.472 15.572C183.451 16.2318 185.012 17.1555 186.156 18.3432C187.314 19.5309 187.893 21.0705 187.893 22.962C187.893 24.4283 187.497 25.7553 186.705 26.943C185.928 28.1307 184.777 29.0765 183.253 29.7803C181.728 30.4841 179.859 30.836 177.645 30.836Z" fill="#310101"/>
<path d="M194.072 2.6833H197.502V14.8681H211.181V2.6833H214.567V30.3081H211.181V17.8154H197.502V30.3081H194.072V2.6833Z" fill="#310101"/>
<path d="M224.109 4.31088C223.405 4.31088 222.848 4.11293 222.437 3.71703C222.027 3.30647 221.821 2.77128 221.821 2.11145C221.821 1.46628 222.027 0.953084 222.437 0.571849C222.848 0.190616 223.405 0 224.109 0C224.812 0 225.369 0.190616 225.78 0.571849C226.19 0.953084 226.396 1.46628 226.396 2.11145C226.396 2.77128 226.19 3.30647 225.78 3.71703C225.369 4.11293 224.812 4.31088 224.109 4.31088ZM222.393 30.3081V9.2376H225.824V30.3081H222.393Z" fill="#310101"/>
<path d="M233.91 2.6833H238L252.03 25.4254H251.722V2.6833H255.153V30.3081H251.326L236.813 6.81823H237.34V30.3081H233.91V2.6833Z" fill="#310101"/>
<path d="M262.656 30.3081V2.6833H279.676V5.63054H266.086V14.9121H278.885V17.8594H266.086V27.3169H279.676V30.3081H262.656Z" fill="#310101"/>
<path d="M286.077 30.3081V2.6833H295.708C298.86 2.6833 301.243 3.43844 302.855 4.94872C304.483 6.44433 305.296 8.41648 305.296 10.8652C305.296 13.2846 304.483 15.2494 302.855 16.7596C301.243 18.2553 298.86 19.0031 295.708 19.0031H289.507V30.3081H286.077ZM301.558 30.3081L293.641 17.7714H297.38L306 30.3081H301.558ZM289.507 16.5837H295.445C297.512 16.5837 299.08 16.0778 300.151 15.0661C301.235 14.0397 301.778 12.7127 301.778 11.0851C301.778 9.41356 301.257 8.08657 300.216 7.10416C299.19 6.12174 297.688 5.63054 295.708 5.63054H289.507V16.5837Z" fill="#310101"/>
</svg>
