<svg xmlns="http://www.w3.org/2000/svg" xmlns:xlink="http://www.w3.org/1999/xlink" width="40" zoomAndPan="magnify" viewBox="0 0 30 30.000001" height="40" preserveAspectRatio="xMidYMid meet" version="1.0"><defs><clipPath id="35d0cb1aae"><path d="M 0.484375 0 L 29.515625 0 L 29.515625 29.03125 L 0.484375 29.03125 Z M 0.484375 0 " clip-rule="nonzero"/></clipPath><clipPath id="cf4bf9eba7"><path d="M 0.972656 0 L 29.28125 0 L 29.28125 29.03125 L 0.972656 29.03125 Z M 0.972656 0 " clip-rule="nonzero"/></clipPath></defs><g clip-path="url(#35d0cb1aae)"><path fill="#ffffff" d="M 0.484375 0 L 29.515625 0 L 29.515625 29.03125 L 0.484375 29.03125 Z M 0.484375 0 " fill-opacity="1" fill-rule="nonzero"/><path fill="#ffffff" d="M 0.484375 0 L 29.515625 0 L 29.515625 29.03125 L 0.484375 29.03125 Z M 0.484375 0 " fill-opacity="1" fill-rule="nonzero"/></g><g clip-path="url(#cf4bf9eba7)"><path fill="#ebb707" d="M 4.914062 3.976562 L 4.804688 3.910156 C 4.84375 3.921875 4.871094 3.949219 4.914062 3.976562 Z M 22.078125 8.136719 L 22.144531 8.054688 Z M 3.316406 8.496094 L 3.164062 8.457031 Z M 21.320312 9.859375 L 21.292969 9.859375 Z M 25.863281 10.507812 L 26.03125 10.453125 Z M 3.109375 14.183594 L 3.21875 14.15625 Z M 1.839844 14.488281 L 1.925781 14.460938 Z M 25.3125 17.960938 L 25.203125 17.933594 Z M 25.191406 22.90625 L 25.105469 22.851562 Z M 6.882812 24.019531 L 6.964844 23.9375 L 6.980469 23.925781 Z M 11.332031 26.75 L 11.347656 26.664062 Z M 16.265625 29.019531 C 16.167969 29.007812 16.097656 28.925781 16.097656 28.828125 C 16.097656 28.828125 16.085938 28.8125 16.085938 28.8125 C 16.015625 28.648438 15.960938 28.484375 15.90625 28.304688 C 15.851562 28.140625 15.796875 27.988281 15.742188 27.824219 C 15.683594 27.65625 15.628906 27.476562 15.574219 27.300781 C 15.519531 27.121094 15.480469 26.96875 15.421875 26.804688 C 15.328125 26.472656 15.21875 26.140625 15.148438 25.796875 C 15.105469 25.617188 15.066406 25.453125 15.039062 25.273438 C 15.011719 25.09375 14.96875 24.929688 14.925781 24.765625 C 14.886719 24.53125 14.859375 24.296875 14.816406 24.0625 C 14.777344 23.828125 14.734375 23.609375 14.679688 23.386719 C 14.636719 23.207031 14.582031 23.027344 14.542969 22.851562 C 14.5 22.671875 14.460938 22.492188 14.417969 22.3125 C 14.363281 22.105469 14.308594 21.898438 14.253906 21.691406 C 14.253906 21.679688 14.238281 21.664062 14.238281 21.652344 C 14.210938 21.71875 14.183594 21.777344 14.15625 21.84375 C 14.085938 22.007812 14.019531 22.160156 13.949219 22.328125 C 13.878906 22.492188 13.8125 22.65625 13.730469 22.824219 C 13.617188 23.054688 13.496094 23.289062 13.386719 23.523438 L 13.300781 23.691406 C 13.21875 23.855469 13.152344 24.007812 13.066406 24.171875 C 12.984375 24.335938 12.917969 24.488281 12.832031 24.65625 C 12.683594 24.972656 12.515625 25.289062 12.351562 25.605469 C 12.269531 25.757812 12.1875 25.90625 12.089844 26.074219 C 11.992188 26.238281 11.925781 26.375 11.84375 26.527344 C 11.757812 26.679688 11.664062 26.859375 11.582031 27.023438 C 11.496094 27.1875 11.429688 27.328125 11.359375 27.492188 C 11.347656 27.535156 11.320312 27.5625 11.304688 27.601562 C 11.277344 27.683594 11.207031 27.753906 11.125 27.78125 C 11.042969 27.808594 10.945312 27.78125 10.90625 27.699219 C 10.878906 27.65625 10.863281 27.601562 10.878906 27.546875 C 10.878906 27.382812 10.890625 27.214844 10.917969 27.066406 C 10.960938 26.71875 11 26.390625 11.03125 26.046875 C 11.042969 25.878906 11.070312 25.703125 11.085938 25.535156 L 11.140625 25.039062 C 11.152344 24.859375 11.179688 24.683594 11.195312 24.503906 C 11.207031 24.324219 11.234375 24.160156 11.261719 23.992188 C 11.304688 23.648438 11.347656 23.304688 11.375 22.960938 C 11.402344 22.617188 11.457031 22.257812 11.496094 21.914062 C 11.539062 21.597656 11.582031 21.28125 11.621094 20.976562 C 11.648438 20.8125 11.664062 20.660156 11.691406 20.496094 L 11.691406 20.480469 L 11.59375 20.5625 C 11.46875 20.671875 11.332031 20.785156 11.195312 20.878906 C 11.070312 20.976562 10.933594 21.058594 10.796875 21.15625 C 10.65625 21.253906 10.519531 21.363281 10.382812 21.457031 C 10.273438 21.542969 10.160156 21.609375 10.050781 21.691406 C 9.914062 21.789062 9.777344 21.898438 9.652344 21.996094 C 9.527344 22.09375 9.375 22.214844 9.238281 22.328125 C 8.976562 22.546875 8.703125 22.765625 8.441406 23 C 8.234375 23.179688 8.039062 23.375 7.832031 23.566406 C 7.585938 23.8125 7.335938 24.0625 7.089844 24.308594 C 6.84375 24.558594 6.566406 24.792969 6.289062 25.011719 C 6.222656 25.066406 6.152344 25.121094 6.085938 25.179688 L 5.972656 25.261719 C 5.917969 25.300781 5.863281 25.34375 5.808594 25.355469 C 5.78125 25.371094 5.753906 25.371094 5.726562 25.371094 C 5.699219 25.371094 5.671875 25.371094 5.65625 25.355469 C 5.589844 25.328125 5.535156 25.273438 5.535156 25.207031 C 5.535156 25.121094 5.546875 25.054688 5.589844 24.984375 C 5.65625 24.832031 5.738281 24.683594 5.835938 24.542969 C 5.917969 24.394531 6 24.253906 6.097656 24.117188 C 6.277344 23.828125 6.46875 23.539062 6.664062 23.25 C 6.855469 22.960938 7.046875 22.671875 7.253906 22.394531 C 7.460938 22.121094 7.640625 21.832031 7.832031 21.554688 C 7.929688 21.402344 8.039062 21.265625 8.136719 21.128906 C 8.234375 20.992188 8.328125 20.824219 8.425781 20.671875 C 8.578125 20.453125 8.714844 20.21875 8.851562 19.984375 C 8.992188 19.75 9.128906 19.53125 9.265625 19.296875 C 9.347656 19.160156 9.417969 19.019531 9.5 18.898438 C 9.582031 18.773438 9.664062 18.621094 9.75 18.484375 C 9.84375 18.316406 9.941406 18.167969 10.039062 18 C 9.984375 18.015625 9.914062 18.015625 9.859375 18.027344 C 9.691406 18.070312 9.527344 18.140625 9.363281 18.179688 C 9.167969 18.234375 8.976562 18.277344 8.785156 18.316406 L 8.8125 18.316406 L 8.757812 18.332031 C 8.589844 18.375 8.414062 18.414062 8.246094 18.457031 C 8.082031 18.496094 7.902344 18.523438 7.722656 18.566406 C 7.570312 18.605469 7.433594 18.636719 7.28125 18.675781 L 6.84375 18.773438 L 6.730469 18.800781 L 6.347656 18.898438 L 5.933594 18.992188 C 5.589844 19.074219 5.242188 19.171875 4.898438 19.269531 C 4.554688 19.363281 4.238281 19.488281 3.90625 19.597656 C 3.730469 19.652344 3.5625 19.710938 3.382812 19.765625 C 3.289062 19.792969 3.207031 19.820312 3.109375 19.832031 C 3.082031 19.832031 3.054688 19.832031 3.027344 19.847656 L 2.957031 19.847656 C 2.917969 19.832031 2.875 19.820312 2.832031 19.792969 C 2.804688 19.765625 2.777344 19.710938 2.777344 19.667969 C 2.777344 19.613281 2.792969 19.570312 2.820312 19.53125 C 2.847656 19.488281 2.886719 19.460938 2.929688 19.433594 L 3.027344 19.363281 C 3.09375 19.308594 3.148438 19.269531 3.21875 19.226562 C 3.355469 19.128906 3.496094 19.019531 3.632812 18.9375 C 3.769531 18.855469 3.90625 18.757812 4.046875 18.664062 C 4.183594 18.566406 4.335938 18.46875 4.472656 18.375 C 4.761719 18.179688 5.066406 18 5.355469 17.808594 C 5.492188 17.726562 5.628906 17.617188 5.765625 17.519531 C 5.90625 17.421875 6.058594 17.328125 6.207031 17.230469 C 6.511719 17.035156 6.8125 16.84375 7.132812 16.652344 C 7.378906 16.5 7.613281 16.335938 7.847656 16.183594 C 7.972656 16.113281 8.09375 16.03125 8.234375 15.960938 C 8.289062 15.933594 8.34375 15.894531 8.398438 15.867188 C 8.289062 15.851562 8.179688 15.839844 8.066406 15.8125 L 7.476562 15.699219 L 7.503906 15.699219 C 7.253906 15.660156 7.007812 15.617188 6.757812 15.578125 C 6.511719 15.535156 6.289062 15.480469 6.058594 15.4375 L 5.644531 15.371094 L 5.546875 15.355469 L 5.535156 15.355469 C 5.503906 15.355469 5.464844 15.34375 5.4375 15.34375 L 5.421875 15.34375 L 5.328125 15.328125 L 4.925781 15.261719 C 4.582031 15.203125 4.238281 15.164062 3.894531 15.121094 C 3.550781 15.082031 3.207031 15.054688 2.859375 15.011719 C 2.515625 14.96875 2.144531 14.914062 1.785156 14.875 C 1.609375 14.847656 1.429688 14.820312 1.261719 14.777344 C 1.179688 14.765625 1.097656 14.738281 1.027344 14.679688 C 1 14.652344 0.972656 14.613281 0.972656 14.558594 C 0.972656 14.503906 0.988281 14.460938 1.015625 14.417969 C 1.054688 14.363281 1.125 14.335938 1.195312 14.308594 L 1.316406 14.269531 C 1.578125 14.183594 1.839844 14.101562 2.117188 14.046875 C 2.394531 13.992188 2.65625 13.921875 2.929688 13.867188 L 2.902344 13.867188 C 3.246094 13.785156 3.605469 13.71875 3.949219 13.632812 C 4.292969 13.550781 4.636719 13.496094 4.980469 13.414062 L 5.589844 13.277344 L 5.726562 13.25 L 5.835938 13.222656 L 5.863281 13.222656 C 5.890625 13.222656 5.917969 13.207031 5.945312 13.207031 L 6 13.207031 C 6.167969 13.167969 6.347656 13.136719 6.511719 13.097656 C 6.675781 13.054688 6.855469 13.042969 7.019531 13.015625 C 7.1875 12.988281 7.367188 12.945312 7.542969 12.90625 C 7.722656 12.863281 7.890625 12.835938 8.066406 12.808594 L 8.109375 12.792969 L 8.011719 12.726562 C 7.875 12.613281 7.738281 12.503906 7.585938 12.394531 C 7.433594 12.285156 7.324219 12.203125 7.1875 12.089844 C 7.046875 11.980469 6.910156 11.859375 6.773438 11.761719 C 6.496094 11.539062 6.222656 11.335938 5.945312 11.101562 C 5.671875 10.867188 5.382812 10.632812 5.09375 10.382812 C 4.96875 10.273438 4.859375 10.175781 4.734375 10.082031 C 4.5 9.886719 4.253906 9.695312 4.019531 9.503906 C 3.894531 9.40625 3.769531 9.308594 3.644531 9.210938 C 3.523438 9.117188 3.410156 9.046875 3.289062 8.964844 C 3.136719 8.867188 3 8.785156 2.847656 8.6875 C 2.683594 8.59375 2.515625 8.496094 2.363281 8.371094 C 2.28125 8.316406 2.226562 8.234375 2.199219 8.152344 C 2.171875 8.054688 2.214844 7.945312 2.296875 7.902344 C 2.40625 7.863281 2.515625 7.863281 2.613281 7.902344 C 2.777344 7.945312 2.945312 8 3.109375 8.054688 L 3.425781 8.164062 C 3.578125 8.207031 3.730469 8.261719 3.878906 8.304688 C 4.03125 8.34375 4.210938 8.386719 4.390625 8.425781 C 4.734375 8.511719 5.066406 8.59375 5.410156 8.6875 C 5.574219 8.730469 5.738281 8.785156 5.90625 8.839844 C 6.070312 8.894531 6.261719 8.949219 6.441406 9.019531 C 6.621094 9.089844 6.773438 9.144531 6.9375 9.210938 C 7.105469 9.28125 7.269531 9.351562 7.449219 9.40625 C 7.65625 9.488281 7.859375 9.558594 8.066406 9.625 L 8.207031 9.667969 C 8.136719 9.570312 8.066406 9.472656 8 9.378906 C 7.902344 9.242188 7.820312 9.101562 7.722656 8.964844 C 7.628906 8.828125 7.53125 8.675781 7.433594 8.523438 L 7.144531 8.070312 C 7.046875 7.933594 6.964844 7.792969 6.871094 7.640625 C 6.675781 7.339844 6.511719 7.050781 6.320312 6.761719 C 6.125 6.472656 5.917969 6.183594 5.726562 5.894531 C 5.535156 5.605469 5.355469 5.316406 5.148438 5.023438 C 4.941406 4.734375 4.734375 4.445312 4.542969 4.15625 C 4.445312 4.019531 4.347656 3.867188 4.253906 3.730469 C 4.226562 3.6875 4.195312 3.648438 4.183594 3.605469 C 4.140625 3.550781 4.113281 3.484375 4.101562 3.414062 C 4.085938 3.371094 4.085938 3.316406 4.101562 3.277344 C 4.113281 3.234375 4.140625 3.191406 4.183594 3.164062 C 4.226562 3.136719 4.265625 3.136719 4.308594 3.136719 C 4.347656 3.136719 4.390625 3.152344 4.417969 3.179688 L 4.597656 3.316406 C 4.664062 3.359375 4.734375 3.398438 4.789062 3.453125 C 4.925781 3.550781 5.066406 3.648438 5.203125 3.746094 C 5.492188 3.949219 5.765625 4.183594 6.058594 4.40625 C 6.332031 4.625 6.609375 4.832031 6.871094 5.054688 C 7.132812 5.273438 7.40625 5.519531 7.667969 5.769531 C 7.792969 5.894531 7.917969 6.003906 8.054688 6.128906 C 8.191406 6.25 8.328125 6.375 8.46875 6.5 L 9.253906 7.1875 C 9.488281 7.394531 9.722656 7.601562 9.941406 7.808594 C 10.160156 8.015625 10.394531 8.25 10.617188 8.484375 L 10.65625 8.523438 C 10.617188 8.386719 10.5625 8.25 10.519531 8.109375 C 10.464844 7.945312 10.421875 7.78125 10.382812 7.613281 C 10.339844 7.449219 10.273438 7.285156 10.230469 7.117188 C 10.132812 6.84375 10.066406 6.554688 9.996094 6.265625 C 9.914062 5.933594 9.816406 5.589844 9.75 5.257812 C 9.679688 4.929688 9.597656 4.542969 9.5 4.199219 C 9.460938 4.035156 9.417969 3.882812 9.390625 3.714844 C 9.363281 3.550781 9.308594 3.386719 9.265625 3.222656 C 9.226562 3.054688 9.183594 2.875 9.140625 2.710938 C 9.128906 2.667969 9.128906 2.628906 9.113281 2.585938 C 9.085938 2.503906 9.101562 2.40625 9.140625 2.339844 C 9.183594 2.257812 9.28125 2.230469 9.363281 2.257812 C 9.402344 2.269531 9.445312 2.296875 9.488281 2.339844 C 9.609375 2.464844 9.722656 2.585938 9.816406 2.710938 C 9.925781 2.847656 10.039062 2.988281 10.132812 3.125 C 10.355469 3.398438 10.535156 3.703125 10.738281 3.992188 C 10.945312 4.28125 11.140625 4.570312 11.332031 4.859375 C 11.523438 5.148438 11.730469 5.453125 11.910156 5.769531 C 12.078125 6.042969 12.242188 6.332031 12.394531 6.625 C 12.542969 6.914062 12.710938 7.203125 12.863281 7.492188 L 12.847656 7.464844 C 12.902344 7.558594 12.957031 7.671875 13.011719 7.765625 C 13.027344 7.671875 13.039062 7.585938 13.054688 7.503906 C 13.082031 7.339844 13.09375 7.175781 13.125 7.007812 C 13.152344 6.84375 13.179688 6.652344 13.21875 6.472656 C 13.289062 6.128906 13.355469 5.796875 13.425781 5.464844 C 13.496094 5.136719 13.550781 4.75 13.617188 4.390625 C 13.660156 4.210938 13.6875 4.035156 13.730469 3.855469 C 13.769531 3.675781 13.785156 3.496094 13.8125 3.316406 C 13.851562 2.972656 13.878906 2.628906 13.921875 2.285156 C 13.949219 2.105469 13.964844 1.925781 13.992188 1.746094 C 14.019531 1.566406 14.019531 1.390625 14.03125 1.210938 C 14.03125 1.167969 14.03125 1.128906 14.046875 1.085938 C 14.046875 1.015625 14.074219 0.933594 14.101562 0.878906 C 14.128906 0.796875 14.210938 0.742188 14.292969 0.726562 C 14.375 0.726562 14.460938 0.769531 14.5 0.851562 C 14.542969 0.921875 14.582031 1.003906 14.609375 1.085938 C 14.636719 1.167969 14.664062 1.238281 14.695312 1.320312 L 14.859375 1.816406 C 14.914062 1.980469 14.984375 2.144531 15.039062 2.3125 C 15.148438 2.628906 15.257812 2.960938 15.367188 3.277344 C 15.421875 3.441406 15.480469 3.605469 15.519531 3.773438 C 15.5625 3.9375 15.617188 4.128906 15.65625 4.308594 C 15.699219 4.488281 15.742188 4.652344 15.78125 4.820312 C 15.824219 4.984375 15.851562 5.164062 15.890625 5.34375 C 15.960938 5.6875 16.03125 6.03125 16.097656 6.390625 C 16.113281 6.457031 16.125 6.511719 16.140625 6.582031 C 16.195312 6.472656 16.265625 6.363281 16.320312 6.25 C 16.484375 5.949219 16.648438 5.632812 16.816406 5.34375 C 16.953125 5.09375 17.089844 4.859375 17.226562 4.613281 C 17.367188 4.363281 17.53125 4.101562 17.695312 3.839844 L 17.738281 3.773438 L 17.75 3.746094 L 17.765625 3.730469 C 17.890625 3.539062 18 3.34375 18.125 3.152344 C 18.246094 2.960938 18.386719 2.753906 18.507812 2.558594 C 18.6875 2.257812 18.867188 1.953125 19.03125 1.636719 C 19.199219 1.320312 19.378906 1.03125 19.570312 0.726562 C 19.625 0.644531 19.667969 0.5625 19.722656 0.480469 C 19.777344 0.398438 19.804688 0.34375 19.859375 0.273438 C 19.902344 0.21875 19.929688 0.175781 19.96875 0.121094 C 20.023438 0.0390625 20.132812 0.0117188 20.230469 0.0390625 C 20.3125 0.0664062 20.367188 0.148438 20.367188 0.230469 C 20.367188 0.273438 20.367188 0.328125 20.367188 0.371094 C 20.339844 0.535156 20.3125 0.699219 20.273438 0.867188 C 20.246094 1.03125 20.203125 1.210938 20.175781 1.375 C 20.148438 1.539062 20.09375 1.71875 20.066406 1.898438 C 20.039062 2.078125 19.996094 2.230469 19.957031 2.394531 C 19.886719 2.738281 19.816406 3.070312 19.761719 3.398438 C 19.707031 3.730469 19.625 4.101562 19.542969 4.445312 C 19.460938 4.792969 19.390625 5.136719 19.292969 5.464844 C 19.253906 5.632812 19.210938 5.808594 19.15625 5.976562 C 19.101562 6.140625 19.058594 6.304688 19.019531 6.472656 C 18.921875 6.816406 18.855469 7.160156 18.757812 7.503906 C 18.730469 7.601562 18.703125 7.699219 18.675781 7.792969 L 18.6875 7.792969 C 18.824219 7.683594 18.976562 7.585938 19.117188 7.492188 C 19.253906 7.394531 19.40625 7.269531 19.554688 7.175781 C 19.707031 7.078125 19.84375 6.980469 19.996094 6.886719 C 20.300781 6.691406 20.589844 6.5 20.90625 6.320312 C 21.222656 6.140625 21.539062 5.960938 21.855469 5.769531 C 22.132812 5.605469 22.40625 5.425781 22.667969 5.230469 C 22.808594 5.136719 22.945312 5.023438 23.082031 4.929688 C 23.21875 4.832031 23.371094 4.707031 23.523438 4.597656 C 23.675781 4.488281 23.796875 4.390625 23.9375 4.296875 L 24.351562 3.976562 C 24.625 3.773438 24.902344 3.566406 25.175781 3.34375 L 25.382812 3.179688 C 25.410156 3.152344 25.4375 3.136719 25.480469 3.109375 C 25.519531 3.082031 25.519531 3.082031 25.546875 3.070312 C 25.589844 3.027344 25.644531 3.015625 25.699219 3 C 25.742188 2.988281 25.796875 3 25.835938 3.015625 C 25.90625 3.054688 25.949219 3.136719 25.933594 3.222656 C 25.921875 3.25 25.921875 3.277344 25.90625 3.304688 C 25.878906 3.371094 25.851562 3.453125 25.808594 3.523438 C 25.742188 3.6875 25.660156 3.839844 25.5625 3.992188 C 25.464844 4.144531 25.398438 4.296875 25.328125 4.445312 C 25.246094 4.597656 25.148438 4.75 25.050781 4.886719 C 24.957031 5.023438 24.84375 5.164062 24.734375 5.285156 C 24.625 5.410156 24.527344 5.5625 24.417969 5.699219 C 24.308594 5.839844 24.210938 5.976562 24.101562 6.113281 C 23.992188 6.25 23.882812 6.390625 23.769531 6.539062 C 23.660156 6.691406 23.578125 6.816406 23.46875 6.953125 C 23.304688 7.1875 23.125 7.410156 22.945312 7.628906 C 22.863281 7.738281 22.765625 7.847656 22.683594 7.945312 C 22.601562 8.042969 22.503906 8.152344 22.40625 8.261719 L 22.339844 8.34375 C 22.257812 8.441406 22.171875 8.539062 22.089844 8.648438 C 22.007812 8.757812 21.9375 8.855469 21.871094 8.949219 C 21.746094 9.117188 21.621094 9.28125 21.5 9.460938 C 21.773438 9.433594 22.050781 9.417969 22.324219 9.40625 C 22.503906 9.390625 22.683594 9.390625 22.863281 9.390625 C 23.042969 9.390625 23.207031 9.390625 23.386719 9.390625 C 23.742188 9.390625 24.101562 9.390625 24.460938 9.378906 L 24.957031 9.351562 L 25.507812 9.335938 L 25.644531 9.335938 C 25.824219 9.324219 25.988281 9.308594 26.167969 9.296875 C 26.347656 9.28125 26.511719 9.253906 26.691406 9.242188 C 27.0625 9.199219 27.433594 9.199219 27.792969 9.183594 C 27.957031 9.183594 28.125 9.183594 28.304688 9.183594 L 28.578125 9.183594 C 28.660156 9.183594 28.757812 9.199219 28.839844 9.226562 C 28.921875 9.253906 29.019531 9.335938 29.019531 9.433594 C 29.019531 9.472656 29.003906 9.515625 28.976562 9.558594 C 28.964844 9.585938 28.949219 9.597656 28.921875 9.613281 C 28.894531 9.640625 28.855469 9.652344 28.8125 9.679688 C 28.730469 9.722656 28.660156 9.765625 28.578125 9.792969 C 28.425781 9.875 28.277344 9.941406 28.125 10.011719 C 27.820312 10.148438 27.503906 10.273438 27.1875 10.398438 L 26.761719 10.578125 C 26.609375 10.632812 26.445312 10.6875 26.292969 10.742188 C 25.949219 10.867188 25.601562 10.976562 25.273438 11.074219 L 24.265625 11.402344 C 23.921875 11.511719 23.578125 11.625 23.246094 11.746094 C 23.507812 11.84375 23.769531 11.941406 24.046875 12.023438 C 24.390625 12.132812 24.734375 12.230469 25.066406 12.351562 C 25.398438 12.476562 25.714844 12.628906 26.042969 12.765625 C 26.375 12.90625 26.691406 13.027344 27.007812 13.179688 C 27.324219 13.332031 27.628906 13.46875 27.945312 13.632812 C 28.015625 13.675781 28.082031 13.71875 28.164062 13.746094 L 28.289062 13.8125 C 28.316406 13.828125 28.359375 13.839844 28.386719 13.867188 L 28.414062 13.882812 L 28.425781 13.882812 C 28.496094 13.921875 28.578125 13.964844 28.648438 14.007812 C 28.6875 14.035156 28.730469 14.0625 28.757812 14.089844 C 28.839844 14.144531 28.894531 14.226562 28.910156 14.324219 C 28.921875 14.417969 28.867188 14.503906 28.785156 14.53125 C 28.742188 14.542969 28.703125 14.558594 28.660156 14.558594 C 28.578125 14.570312 28.507812 14.585938 28.441406 14.613281 C 28.289062 14.640625 28.125 14.667969 27.972656 14.695312 C 27.820312 14.722656 27.628906 14.75 27.460938 14.777344 C 27.105469 14.820312 26.746094 14.832031 26.402344 14.847656 C 26.320312 14.847656 26.222656 14.859375 26.140625 14.859375 C 26.058594 14.859375 25.960938 14.859375 25.863281 14.859375 C 25.699219 14.859375 25.519531 14.847656 25.355469 14.847656 L 25.230469 14.847656 C 25.066406 14.859375 24.886719 14.875 24.722656 14.886719 C 24.554688 14.902344 24.363281 14.929688 24.183594 14.941406 C 24.003906 14.957031 23.828125 14.96875 23.648438 14.96875 C 23.46875 14.96875 23.304688 14.957031 23.125 14.96875 C 22.945312 14.984375 22.765625 14.96875 22.585938 14.96875 L 22.710938 15.054688 C 22.847656 15.148438 22.984375 15.246094 23.125 15.34375 C 23.261719 15.4375 23.398438 15.550781 23.523438 15.644531 L 23.632812 15.714844 C 23.769531 15.8125 23.910156 15.90625 24.058594 16.003906 C 24.210938 16.101562 24.351562 16.195312 24.5 16.292969 C 24.804688 16.484375 25.121094 16.679688 25.425781 16.871094 C 25.726562 17.066406 26.015625 17.230469 26.304688 17.410156 C 26.59375 17.589844 26.910156 17.792969 27.214844 17.972656 C 27.367188 18.070312 27.53125 18.179688 27.683594 18.289062 C 27.753906 18.34375 27.820312 18.402344 27.890625 18.46875 C 27.929688 18.511719 27.972656 18.550781 28 18.59375 C 28.054688 18.675781 28.054688 18.773438 28 18.855469 C 27.945312 18.910156 27.875 18.9375 27.808594 18.925781 C 27.765625 18.925781 27.722656 18.925781 27.683594 18.910156 C 27.601562 18.898438 27.519531 18.898438 27.433594 18.882812 C 27.269531 18.855469 27.105469 18.8125 26.9375 18.757812 C 26.71875 18.703125 26.511719 18.636719 26.292969 18.578125 C 26.070312 18.523438 25.863281 18.457031 25.660156 18.414062 C 25.453125 18.375 25.203125 18.316406 24.96875 18.25 C 24.734375 18.179688 24.515625 18.125 24.28125 18.070312 C 24.101562 18.027344 23.921875 17.988281 23.757812 17.945312 C 23.59375 17.90625 23.414062 17.851562 23.246094 17.792969 C 23.082031 17.738281 22.902344 17.683594 22.722656 17.644531 C 22.546875 17.601562 22.394531 17.546875 22.214844 17.492188 C 22.078125 17.449219 21.9375 17.421875 21.800781 17.394531 L 21.511719 17.328125 C 21.511719 17.339844 21.527344 17.339844 21.527344 17.355469 L 21.84375 17.78125 C 22.050781 18.070312 22.269531 18.34375 22.476562 18.621094 L 23.109375 19.460938 C 23.332031 19.738281 23.535156 20.027344 23.742188 20.316406 C 23.949219 20.605469 24.171875 20.878906 24.363281 21.15625 C 24.554688 21.429688 24.777344 21.71875 24.984375 21.996094 C 25.066406 22.105469 25.148438 22.230469 25.230469 22.339844 C 25.3125 22.449219 25.410156 22.574219 25.492188 22.699219 C 25.574219 22.824219 25.660156 22.917969 25.753906 23.027344 C 25.851562 23.140625 25.933594 23.25 26.015625 23.347656 C 26.015625 23.359375 26.03125 23.359375 26.03125 23.375 C 26.042969 23.386719 26.058594 23.402344 26.058594 23.429688 C 26.070312 23.46875 26.070312 23.523438 26.058594 23.566406 C 26.03125 23.636719 25.960938 23.675781 25.890625 23.675781 C 25.863281 23.675781 25.851562 23.675781 25.824219 23.664062 C 25.660156 23.578125 25.507812 23.496094 25.355469 23.402344 C 25.203125 23.304688 25.039062 23.222656 24.886719 23.125 C 24.734375 23.027344 24.597656 22.945312 24.460938 22.863281 C 24.320312 22.78125 24.15625 22.671875 23.992188 22.589844 C 23.828125 22.503906 23.6875 22.410156 23.550781 22.328125 C 23.414062 22.242188 23.261719 22.160156 23.109375 22.078125 C 22.808594 21.914062 22.503906 21.734375 22.199219 21.542969 C 21.980469 21.402344 21.761719 21.253906 21.554688 21.113281 C 21.265625 20.921875 20.960938 20.742188 20.65625 20.578125 L 20.203125 20.316406 C 20.050781 20.234375 19.902344 20.136719 19.734375 20.054688 L 19.582031 19.972656 C 19.460938 19.914062 19.347656 19.859375 19.226562 19.804688 L 19.238281 19.832031 C 19.292969 19.957031 19.347656 20.09375 19.417969 20.21875 C 19.570312 20.523438 19.722656 20.824219 19.871094 21.128906 C 20.023438 21.429688 20.203125 21.734375 20.367188 22.039062 C 20.535156 22.339844 20.6875 22.65625 20.851562 22.972656 C 20.933594 23.125 21.003906 23.289062 21.085938 23.441406 C 21.167969 23.59375 21.238281 23.757812 21.320312 23.910156 C 21.484375 24.226562 21.648438 24.558594 21.816406 24.875 C 21.980469 25.191406 22.160156 25.507812 22.351562 25.8125 C 22.449219 25.964844 22.546875 26.113281 22.640625 26.28125 C 22.738281 26.445312 22.820312 26.582031 22.917969 26.734375 C 23.011719 26.886719 23.109375 27.023438 23.191406 27.175781 C 23.273438 27.328125 23.359375 27.464844 23.414062 27.617188 C 23.441406 27.683594 23.453125 27.753906 23.441406 27.824219 C 23.425781 27.863281 23.398438 27.90625 23.371094 27.917969 C 23.34375 27.945312 23.304688 27.960938 23.261719 27.960938 C 23.246094 27.960938 23.234375 27.960938 23.21875 27.960938 C 23.179688 27.945312 23.136719 27.933594 23.109375 27.890625 C 23.082031 27.863281 23.042969 27.835938 23.011719 27.808594 C 22.890625 27.683594 22.78125 27.5625 22.667969 27.4375 C 22.433594 27.1875 22.214844 26.914062 21.996094 26.664062 C 21.773438 26.417969 21.511719 26.128906 21.277344 25.851562 C 21.152344 25.730469 21.042969 25.589844 20.917969 25.46875 L 20.5625 25.066406 C 20.273438 24.738281 19.984375 24.421875 19.707031 24.089844 L 19.625 23.992188 C 19.40625 23.730469 19.171875 23.46875 18.9375 23.222656 C 18.703125 22.972656 18.46875 22.671875 18.21875 22.394531 C 18.152344 22.3125 18.082031 22.230469 18.011719 22.148438 C 17.929688 22.050781 17.847656 21.953125 17.75 21.859375 C 17.65625 21.746094 17.574219 21.636719 17.476562 21.527344 C 17.449219 21.734375 17.433594 21.941406 17.40625 22.132812 C 17.378906 22.3125 17.367188 22.476562 17.351562 22.65625 L 17.296875 23.167969 C 17.285156 23.359375 17.253906 23.539062 17.226562 23.730469 C 17.199219 23.925781 17.1875 24.0625 17.160156 24.226562 C 17.105469 24.585938 17.0625 24.929688 17.023438 25.289062 C 16.980469 25.589844 16.925781 25.894531 16.882812 26.195312 C 16.855469 26.335938 16.84375 26.488281 16.816406 26.625 C 16.789062 26.761719 16.773438 26.914062 16.746094 27.066406 C 16.746094 27.066406 16.746094 27.066406 16.746094 27.078125 L 16.746094 27.105469 C 16.746094 27.121094 16.746094 27.148438 16.730469 27.160156 C 16.730469 27.1875 16.71875 27.214844 16.71875 27.242188 C 16.71875 27.242188 16.71875 27.257812 16.71875 27.257812 C 16.71875 27.285156 16.703125 27.3125 16.703125 27.339844 L 16.703125 27.3125 L 16.703125 27.339844 C 16.703125 27.339844 16.703125 27.355469 16.703125 27.355469 L 16.703125 27.367188 C 16.703125 27.394531 16.691406 27.421875 16.691406 27.449219 C 16.691406 27.476562 16.675781 27.535156 16.675781 27.574219 L 16.636719 27.824219 C 16.59375 28.140625 16.539062 28.457031 16.511719 28.757812 L 16.5 28.84375 C 16.484375 28.9375 16.386719 29.007812 16.292969 28.992188 Z M 16.265625 29.019531 " fill-opacity="1" fill-rule="nonzero"/></g></svg>